<?xml version="1.0" encoding="utf-8"?>
<!DOCTYPE svg PUBLIC "-//W3C//DTD SVG 1.1//EN" "http://www.w3.org/Graphics/SVG/1.1/DTD/svg11.dtd">
<svg version="1.1" id="Layer_1" xmlns="http://www.w3.org/2000/svg" xmlns:xlink="http://www.w3.org/1999/xlink" x="0px" y="0px"
	 width="64px" height="64px" viewBox="0 0 64 64" enable-background="new 0 0 64 64" xml:space="preserve" fill="#439FE0">
<path d="M40.5,5.1c-0.3-0.2-0.7-0.1-1,0.1L17.7,21H2c-0.6,0-1,0.4-1,1v20c0,0.6,0.4,1,1,1h15.7l21.7,15.8c0.2,0.1,0.4,0.2,0.6,0.2
	c0.2,0,0.3,0,0.5-0.1c0.3-0.2,0.5-0.5,0.5-0.9V6C41,5.6,40.8,5.3,40.5,5.1z"/>
<path d="M48,22.7c-0.4,0.4-0.4,1,0,1.4c4.3,4.3,4.3,11.4,0,15.8c-0.4,0.4-0.4,1,0,1.4c0.2,0.2,0.5,0.3,0.7,0.3s0.5-0.1,0.7-0.3
	c5.1-5.1,5.1-13.5,0-18.6C49,22.3,48.4,22.3,48,22.7z"/>
<path d="M54.9,15.8c-0.4,0.4-0.4,1,0,1.4c8.1,8.1,8.1,21.4,0,29.5c-0.4,0.4-0.4,1,0,1.4c0.2,0.2,0.5,0.3,0.7,0.3s0.5-0.1,0.7-0.3
	c8.9-8.9,8.9-23.4,0-32.3C55.9,15.4,55.3,15.4,54.9,15.8z"/>
</svg>
