<?xml version="1.0" encoding="utf-8"?>

<!DOCTYPE svg PUBLIC "-//W3C//DTD SVG 1.1//EN" "http://www.w3.org/Graphics/SVG/1.1/DTD/svg11.dtd">
<svg version="1.1" id="Layer_1" xmlns="http://www.w3.org/2000/svg" xmlns:xlink="http://www.w3.org/1999/xlink" x="0px" y="0px"
	 width="24px" height="24px" viewBox="0 0 64 64" enable-background="new 0 0 64 64" xml:space="preserve" fill="#8E8E92">
<path d="M27,14h-2c-0.552,0-1,0.448-1,1v27c0,4.592,3.89,8.294,8.548,7.982C36.795,49.697,40,45.974,40,41.717V15
	c0-7.385-6.191-13.352-13.656-12.984C19.362,2.361,14,8.386,14,15.377v28.18c0,9.747,7.564,18.06,17.304,18.429
	C41.545,62.375,50,54.156,50,44V15c0-0.552-0.448-1-1-1h-2c-0.552,0-1,0.448-1,1v29c0,7.953-6.666,14.379-14.705,13.983
	C23.774,57.612,18,51.124,18,43.594V15c0-5.167,4.375-9.33,9.616-8.979C32.394,6.34,36,10.528,36,15.317V42
	c0,2.338-2.014,4.212-4.399,3.981C29.523,45.778,28,43.911,28,41.823V15C28,14.448,27.552,14,27,14z"/>
</svg>
