<?xml version="1.0" encoding="utf-8"?>
<!-- Generator: Adobe Illustrator 19.2.1, SVG Export Plug-In . SVG Version: 6.00 Build 0)  -->
<!DOCTYPE svg PUBLIC "-//W3C//DTD SVG 1.1//EN" "http://www.w3.org/Graphics/SVG/1.1/DTD/svg11.dtd">
<svg version="1.1" id="Layer_1" xmlns="http://www.w3.org/2000/svg" xmlns:xlink="http://www.w3.org/1999/xlink" x="0px" y="0px"
	 width="20px" height="20px" viewBox="0 0 24 24" enable-background="new 0 0 24 24" xml:space="preserve">
<path fill="#ffffff" d="M12,0C7.514,0,4,3.514,4,8v3c0,1.516-0.756,2.345-1.556,3.222C1.734,15,1,15.805,1,17c0,2.22,3.22,3.364,7.08,3.794
	C8.45,22.621,10.066,24,12,24s3.55-1.379,3.92-3.206C19.78,20.364,23,19.22,23,17c0-1.195-0.734-2-1.444-2.778
	C20.756,13.345,20,12.516,20,11V8C20,3.514,16.486,0,12,0z M12,22c-0.764,0-1.422-0.435-1.76-1.042C10.826,20.985,11.415,21,12,21
	c0.58,0,1.163-0.015,1.744-0.041C13.403,21.576,12.754,22,12,22z M20.078,15.569C20.65,16.196,21,16.601,21,17c0,0.424-2.25,2-9,2
	s-9-1.576-9-2c0-0.399,0.35-0.804,0.922-1.431C4.799,14.607,6,13.291,6,11V8c0-3.364,2.636-6,6-6s6,2.636,6,6v3
	C18,13.291,19.201,14.607,20.078,15.569z"/>
</svg>
