<?xml version="1.0" encoding="utf-8"?>
<!-- Generator: Adobe Illustrator 19.2.1, SVG Export Plug-In . SVG Version: 6.00 Build 0)  -->
<!DOCTYPE svg PUBLIC "-//W3C//DTD SVG 1.1//EN" "http://www.w3.org/Graphics/SVG/1.1/DTD/svg11.dtd">
<svg version="1.1" id="Layer_1" xmlns="http://www.w3.org/2000/svg" xmlns:xlink="http://www.w3.org/1999/xlink" x="0px" y="0px"
	 width="24px" height="24px" viewBox="0 0 24 24" enable-background="new 0 0 24 24" xml:space="preserve">
<path fill= "#ffffff" d="M17.293,2.707l-10,10C7.105,12.895,7,13.149,7,13.414V16c0,0.552,0.448,1,1,1h2.586c0.265,0,0.52-0.105,0.707-0.293l10-10
	c0.391-0.391,0.391-1.024,0-1.414l-2.586-2.586C18.317,2.317,17.683,2.317,17.293,2.707z"/>
<path fill= "#ffffff" d="M1,24h18c0.552,0,1-0.447,1-1v-8c0-0.553-0.448-1-1-1s-1,0.447-1,1v7H2V6h7c0.552,0,1-0.447,1-1S9.552,4,9,4H1
	C0.448,4,0,4.447,0,5v18C0,23.553,0.448,24,1,24z"/>
</svg>
