<?xml version="1.0" encoding="utf-8"?>
<!-- Generator: Adobe Illustrator 19.1.0, SVG Export Plug-In . SVG Version: 6.00 Build 0)  -->
<!DOCTYPE svg PUBLIC "-//W3C//DTD SVG 1.1//EN" "http://www.w3.org/Graphics/SVG/1.1/DTD/svg11.dtd">
<svg version="1.1" id="Layer_1" xmlns="http://www.w3.org/2000/svg" xmlns:xlink="http://www.w3.org/1999/xlink" x="0px" y="0px"
	 width="24px" height="24px" viewBox="0 0 16 16" enable-background="new 0 0 16 16" xml:space="preserve">
<path fill="#FFFFFF" d="M16,3.0378c-0.58867,0.26107-1.2213,0.43756-1.88536,0.51689
	c0.67777-0.40624,1.19827-1.04956,1.44334-1.81609c-0.63422,0.37618-1.33675,0.64937-2.08448,0.7966
	c-0.59879-0.638-1.45191-1.03664-2.39602-1.03664c-1.81295,0-3.28269,1.46974-3.28269,3.28252
	c0,0.2573,0.02903,0.5078,0.08498,0.74807c-2.72813-0.13688-5.1469-1.44374-6.76593-3.42974
	C0.83129,2.58424,0.66943,3.1481,0.66943,3.7497c0,1.13883,0.57953,2.14358,1.46031,2.73225
	C1.59165,6.46492,1.0855,6.31723,0.64291,6.07136C0.64268,6.08508,0.64263,6.0988,0.64263,6.11262
	c0,1.59048,1.13151,2.91723,2.6332,3.21877C3.00035,9.40637,2.71036,9.4465,2.411,9.4465c-0.21153,0-0.41716-0.02058-0.6176-0.05887
	c0.41773,1.30411,1.63,2.25319,3.06643,2.27971c-1.12345,0.88038-2.53885,1.40516-4.07677,1.40516
	c-0.26496,0-0.52626-0.01554-0.78305-0.04584c1.45271,0.93136,3.17816,1.47477,5.03191,1.47477
	c6.03791,0,9.33963-5.0019,9.33963-9.33972c0-0.14231-0.0032-0.28388-0.00949-0.42465C15.00337,4.27425,15.55993,3.69609,16,3.0378z
	"/>
</svg>
