<?xml version="1.0" encoding="utf-8"?>

<!DOCTYPE svg PUBLIC "-//W3C//DTD SVG 1.1//EN" "http://www.w3.org/Graphics/SVG/1.1/DTD/svg11.dtd">
<svg version="1.1" id="Layer_1" xmlns="http://www.w3.org/2000/svg" xmlns:xlink="http://www.w3.org/1999/xlink" x="0px" y="0px"
	 width="24px" height="24px" viewBox="0 0 64 64" enable-background="new 0 0 64 64" xml:space="preserve" fill="#8E8E92">
<path d="M50.003,63c0.263,0,0.518-0.107,0.704-0.293L60,53.414c0.781-0.781,0.781-2.047,0-2.828L47.414,38
	c-0.781-0.781-2.047-0.781-2.828,0L36,46.586L17.414,28L26,19.414c0.781-0.781,0.781-2.047,0-2.828L13.414,4
	c-0.781-0.781-2.047-0.781-2.828,0l-9.293,9.293C1.107,13.479,1,13.734,1,13.997C0.999,41.018,22.982,63.001,50.003,63z"/>
</svg>
