<?xml version="1.0" encoding="utf-8"?>
<!-- Generator: Adobe Illustrator 19.1.0, SVG Export Plug-In . SVG Version: 6.00 Build 0)  -->
<!DOCTYPE svg PUBLIC "-//W3C//DTD SVG 1.1//EN" "http://www.w3.org/Graphics/SVG/1.1/DTD/svg11.dtd">
<svg version="1.1" id="Layer_1" xmlns="http://www.w3.org/2000/svg" xmlns:xlink="http://www.w3.org/1999/xlink" x="0px" y="0px"
	 width="24px" height="24px" viewBox="0 0 64 64" enable-background="new 0 0 64 64" xml:space="preserve" fill="#8E8E92">
<path d="M32,45c7.2,0,13-5.8,13-13V14c0-7.2-5.8-13-13-13S19,6.8,19,14v18C19,39.2,24.8,45,32,45z"/>
<path d="M52,23c-0.6,0-1,0.4-1,1v8c0,10.5-8.5,19-19,19s-19-8.5-19-19v-8c0-0.6-0.4-1-1-1s-1,0.4-1,1v8c0,11.2,8.9,20.4,20,20.9V61
	H20c-0.6,0-1,0.4-1,1s0.4,1,1,1h24c0.6,0,1-0.4,1-1s-0.4-1-1-1H33v-8.1c11.1-0.5,20-9.7,20-20.9v-8C53,23.4,52.6,23,52,23z"/>
</svg>
