<?xml version="1.0" encoding="utf-8"?>
<!-- Generator: Adobe Illustrator 19.2.0, SVG Export Plug-In . SVG Version: 6.00 Build 0)  -->
<!DOCTYPE svg PUBLIC "-//W3C//DTD SVG 1.1//EN" "http://www.w3.org/Graphics/SVG/1.1/DTD/svg11.dtd">
<svg version="1.1" id="Layer_1" xmlns="http://www.w3.org/2000/svg" xmlns:xlink="http://www.w3.org/1999/xlink" x="0px" y="0px"
	 width="48px" height="48px" viewBox="0 0 48 48" enable-background="new 0 0 48 48" xml:space="preserve">
<path fill="#E86C60" d="M38,45c-0.25586,0-0.51172-0.09766-0.70703-0.29297L24,31.41406L10.70703,44.70703
	c-0.39062,0.39062-1.02344,0.39062-1.41406,0l-6-6c-0.39062-0.39062-0.39062-1.02344,0-1.41406L16.58594,24L3.29297,10.70703
	c-0.39062-0.39062-0.39062-1.02344,0-1.41406l6-6c0.39062-0.39062,1.02344-0.39062,1.41406,0L24,16.58594L37.29297,3.29297
	c0.39062-0.39062,1.02344-0.39062,1.41406,0l6,6c0.39062,0.39062,0.39062,1.02344,0,1.41406L31.41406,24l13.29297,13.29297
	c0.39062,0.39062,0.39062,1.02344,0,1.41406l-6,6C38.51172,44.90234,38.25586,45,38,45z"/>
</svg>
