<?xml version="1.0" encoding="utf-8"?>
<!-- Generator: Adobe Illustrator 19.1.0, SVG Export Plug-In . SVG Version: 6.00 Build 0)  -->
<!DOCTYPE svg PUBLIC "-//W3C//DTD SVG 1.1//EN" "http://www.w3.org/Graphics/SVG/1.1/DTD/svg11.dtd">
<svg version="1.1" id="Layer_1" xmlns="http://www.w3.org/2000/svg" xmlns:xlink="http://www.w3.org/1999/xlink" x="0px" y="0px"
	 width="24px" height="24px" viewBox="0 0 64 64" enable-background="new 0 0 64 64" xml:space="preserve" fill="#8E8E92">
<path d="M32,1C14.9,1,1,14.9,1,32s13.9,31,31,31s31-13.9,31-31S49.1,1,32,1z M15,24c0-2.8,2.2-5,5-5s5,2.2,5,5
	c0,2.8-2.2,5-5,5S15,26.8,15,24z M32,51c-6.1,0-11-4.9-11-11c0-0.6,0.4-1,1-1s1,0.4,1,1c0,5,4,9,9,9s9-4,9-9c0-0.6,0.4-1,1-1
	s1,0.4,1,1C43,46.1,38.1,51,32,51z M44,29c-2.8,0-5-2.2-5-5c0-2.8,2.2-5,5-5s5,2.2,5,5C49,26.8,46.8,29,44,29z"/>
</svg>
