<?xml version="1.0" encoding="utf-8"?>
<!-- Generator: Adobe Illustrator 19.1.0, SVG Export Plug-In . SVG Version: 6.00 Build 0)  -->
<!DOCTYPE svg PUBLIC "-//W3C//DTD SVG 1.1//EN" "http://www.w3.org/Graphics/SVG/1.1/DTD/svg11.dtd">
<svg version="1.1" id="Layer_1" xmlns="http://www.w3.org/2000/svg" xmlns:xlink="http://www.w3.org/1999/xlink" x="0px" y="0px"
	 width="24px" height="24px" viewBox="0 0 64 64" enable-background="new 0 0 64 64" xml:space="preserve" fill="#8E8E92">
<path d="M42,11H2c-0.6,0-1,0.4-1,1v40c0,0.6,0.4,1,1,1h40c0.6,0,1-0.4,1-1V12C43,11.4,42.6,11,42,11z"/>
<path d="M62.5,15.1c-0.3-0.2-0.7-0.2-1,0L45,25V39l16.5,9.9C61.6,49,61.8,49,62,49c0.2,0,0.3,0,0.5-0.1c0.3-0.2,0.5-0.5,0.5-0.9V16
	C63,15.6,62.8,15.3,62.5,15.1z"/>
</svg>
