<?xml version="1.0" encoding="utf-8"?>
<!-- Generator: Adobe Illustrator 19.2.0, SVG Export Plug-In . SVG Version: 6.00 Build 0)  -->
<!DOCTYPE svg PUBLIC "-//W3C//DTD SVG 1.1//EN" "http://www.w3.org/Graphics/SVG/1.1/DTD/svg11.dtd">
<svg version="1.1" id="Layer_1" xmlns="http://www.w3.org/2000/svg" xmlns:xlink="http://www.w3.org/1999/xlink" x="0px" y="0px"
	 width="18px" height="18px" viewBox="0 0 48 48" enable-background="new 0 0 48 48" xml:space="preserve">
<path fill="#ffffff" d="M18.0238,39.76404C18.02063,39.84412,18,39.91919,18,40c0,3.31372,2.68628,6,6,6s6-2.68628,6-6
	c0-0.08081-0.02063-0.15588-0.0238-0.23596H18.0238z"/>
<path fill="#ffffff" d="M24,41c-12.75684,0-21-2.74805-21-7c0-2.00195,1.27588-3.40137,2.62646-4.88184
	C7.28516,27.2998,9,25.41895,9,22v-6C9,7.58887,15.58887,1,24,1s15,6.58887,15,15v6c0,3.41895,1.71484,5.2998,3.37354,7.11816
	C43.72412,30.59863,45,31.99805,45,34C45,38.25195,36.75684,41,24,41z"/>
</svg>
