<?xml version="1.0" encoding="utf-8"?>
<!-- Generator: Adobe Illustrator 19.2.0, SVG Export Plug-In . SVG Version: 6.00 Build 0)  -->
<!DOCTYPE svg PUBLIC "-//W3C//DTD SVG 1.1//EN" "http://www.w3.org/Graphics/SVG/1.1/DTD/svg11.dtd">
<svg version="1.1" id="Layer_1" xmlns="http://www.w3.org/2000/svg" xmlns:xlink="http://www.w3.org/1999/xlink" x="0px" y="0px"
	 width="20px" height="20px" viewBox="0 0 48 48" enable-background="new 0 0 48 48" xml:space="preserve">
<path fill="#8e8e92" d="M24,1C11.31738,1,1,11.31787,1,24s10.31738,23,23,23s23-10.31787,23-23S36.68262,1,24,1z"/>
<path fill="#FFFFFF" d="M32,29c-0.25586,0-0.51172-0.09766-0.70703-0.29297L24,21.41406l-7.29297,7.29297
	c-0.39062,0.39062-1.02344,0.39062-1.41406,0s-0.39062-1.02344,0-1.41406l8-8c0.39062-0.39062,1.02344-0.39062,1.41406,0l8,8
	c0.39062,0.39062,0.39062,1.02344,0,1.41406C32.51172,28.90234,32.25586,29,32,29z"/>
</svg>
