<?xml version="1.0" encoding="utf-8"?>
<!-- Generator: Adobe Illustrator 18.1.1, SVG Export Plug-In . SVG Version: 6.00 Build 0)  -->
<!DOCTYPE svg PUBLIC "-//W3C//DTD SVG 1.1//EN" "http://www.w3.org/Graphics/SVG/1.1/DTD/svg11.dtd">
<svg version="1.1" id="Layer_1" xmlns="http://www.w3.org/2000/svg" xmlns:xlink="http://www.w3.org/1999/xlink" x="0px" y="0px"
	 width="32px" height="32px" viewBox="0 0 32 32" enable-background="new 0 0 32 32" xml:space="preserve">
<path d="M16,23c3.9,0,7-3.1,7-7V7c0-3.9-3.1-7-7-7S9,3.1,9,7v9C9,19.9,12.1,23,16,23z M11,7c0-2.8,2.2-5,5-5s5,2.2,5,5v9
	c0,2.8-2.2,5-5,5s-5-2.2-5-5V7z"/>
<path d="M26,11c-0.6,0-1,0.4-1,1v4c0,5-4,9-9,9s-9-4-9-9v-4c0-0.6-0.4-1-1-1s-1,0.4-1,1v4c0,5.7,4.4,10.4,10,10.9V30h-5
	c-0.6,0-1,0.4-1,1s0.4,1,1,1h12c0.6,0,1-0.4,1-1s-0.4-1-1-1h-5v-3.1c5.6-0.5,10-5.2,10-10.9v-4C27,11.4,26.6,11,26,11z"/>
</svg>
