<?xml version="1.0" encoding="utf-8"?>

<!DOCTYPE svg PUBLIC "-//W3C//DTD SVG 1.1//EN" "http://www.w3.org/Graphics/SVG/1.1/DTD/svg11.dtd">
<svg version="1.1" id="Layer_1" xmlns="http://www.w3.org/2000/svg" xmlns:xlink="http://www.w3.org/1999/xlink" x="0px" y="0px"
	 width="20px" height="20px" viewBox="0 0 64 64" enable-background="new 0 0 64 64" xml:space="preserve" fill="#ffffff">
<path d="M50,63c0.266,0,0.52-0.105,0.707-0.293l10-10c0.391-0.391,0.391-1.023,0-1.414l-14-14
	c-0.391-0.391-1.023-0.391-1.414,0L36,46.586L17.414,28l9.293-9.293c0.391-0.391,0.391-1.023,0-1.414l-14-14
	c-0.391-0.391-1.023-0.391-1.414,0l-10,10C1.105,13.48,1,13.735,1,14C1,41.019,22.981,63,50,63z M12,5.414L24.586,18l-9.293,9.293
	c-0.391,0.391-0.391,1.023,0,1.414l20,20c0.391,0.391,1.023,0.391,1.414,0L46,39.414L58.586,52l-8.998,8.998
	C23.998,60.777,3.223,40.002,3.002,14.413L12,5.414z"/>
</svg>
