<?xml version="1.0" encoding="utf-8"?>
<!-- Generator: Adobe Illustrator 18.1.1, SVG Export Plug-In . SVG Version: 6.00 Build 0)  -->
<!DOCTYPE svg PUBLIC "-//W3C//DTD SVG 1.1//EN" "http://www.w3.org/Graphics/SVG/1.1/DTD/svg11.dtd">
<svg version="1.1" id="Layer_1" xmlns="http://www.w3.org/2000/svg" xmlns:xlink="http://www.w3.org/1999/xlink" x="0px" y="0px"
	 width="21px" height="21px" fill="#ffffff" viewBox="0 0 32 32" enable-background="new 0 0 32 32" xml:space="preserve">
<path d="M31.5,7.1c-0.3-0.2-0.7-0.2-1,0L22,12.2V6c0-0.6-0.4-1-1-1H1C0.4,5,0,5.4,0,6v20c0,0.6,0.4,1,1,1h20c0.6,0,1-0.4,1-1v-6.2
	l8.5,5.1C30.6,25,30.8,25,31,25c0.2,0,0.3,0,0.5-0.1c0.3-0.2,0.5-0.5,0.5-0.9V8C32,7.6,31.8,7.3,31.5,7.1z M20,25H2V7h18v7v4V25z
	 M30,22.2l-8-4.8v-2.9l8-4.8V22.2z"/>
</svg>
