<?xml version="1.0" encoding="utf-8"?>
<!-- Generator: Adobe Illustrator 19.1.0, SVG Export Plug-In . SVG Version: 6.00 Build 0)  -->
<!DOCTYPE svg PUBLIC "-//W3C//DTD SVG 1.1//EN" "http://www.w3.org/Graphics/SVG/1.1/DTD/svg11.dtd">
<svg version="1.1" id="Layer_1" xmlns="http://www.w3.org/2000/svg" xmlns:xlink="http://www.w3.org/1999/xlink" x="0px" y="0px"
	 width="21px" height="21px" viewBox="0 0 24 24" enable-background="new 0 0 24 24" xml:space="preserve">
<path fill="#FFFFFF" d="M23.6,6.2c-0.3-0.2-0.6-0.2-0.9-0.1L17,8.5V5c0-0.6-0.4-1-1-1H1C0.4,4,0,4.4,0,5v14c0,0.6,0.4,1,1,1h15c0.6,0,1-0.4,1-1
	v-3.5l5.6,2.4C22.7,18,22.9,18,23,18c0.2,0,0.4-0.1,0.6-0.2c0.3-0.2,0.4-0.5,0.4-0.8V7C24,6.7,23.8,6.4,23.6,6.2z"/>
</svg>
