<?xml version="1.0" encoding="utf-8"?>
<!DOCTYPE svg PUBLIC "-//W3C//DTD SVG 1.1//EN" "http://www.w3.org/Graphics/SVG/1.1/DTD/svg11.dtd">
<svg version="1.1" id="Layer_1" xmlns="http://www.w3.org/2000/svg" xmlns:xlink="http://www.w3.org/1999/xlink" x="0px" y="0px"
	 width="64px" height="64px" viewBox="0 0 64 64" enable-background="new 0 0 64 64" xml:space="preserve" fill="#A9A9A9">
<path d="M32,50c0.553,0,1-0.448,1-1V31c0-0.552-0.447-1-1-1s-1,0.448-1,1v18C31,49.552,31.447,50,32,50z"/>
<path d="M22,50c0.553,0,1-0.448,1-1V31c0-0.552-0.447-1-1-1s-1,0.448-1,1v18C21,49.552,21.447,50,22,50z"/>
<path d="M42,50c0.553,0,1-0.448,1-1V31c0-0.552-0.447-1-1-1s-1,0.448-1,1v18C41,49.552,41.447,50,42,50z"/>
<path d="M3,10v8c0,0.552,0.447,1,1,1h5v43c0,0.552,0.447,1,1,1h44c0.553,0,1-0.448,1-1V19h5c0.553,0,1-0.448,1-1v-8
	c0-0.552-0.447-1-1-1H43V2c0-0.552-0.447-1-1-1H22c-0.553,0-1,0.448-1,1v7H4C3.447,9,3,9.448,3,10z M53,61H11V19h42V61z M23,3h18v6
	H23V3z M5,11h54v6H5V11z"/>
</svg>
