<?xml version="1.0" encoding="utf-8"?>
<!-- Generator: Adobe Illustrator 19.1.0, SVG Export Plug-In . SVG Version: 6.00 Build 0)  -->
<!DOCTYPE svg PUBLIC "-//W3C//DTD SVG 1.1//EN" "http://www.w3.org/Graphics/SVG/1.1/DTD/svg11.dtd">
<svg version="1.1" id="Layer_1" xmlns="http://www.w3.org/2000/svg" xmlns:xlink="http://www.w3.org/1999/xlink" x="0px" y="0px"
	 width="21px" height="21px" viewBox="0 0 64 64" enable-background="new 0 0 64 64" fill="#fff" xml:space="preserve">
<path fill="#fff" d="M56,13h-1V8h6c0.6,0,1-0.4,1-1V2c0-0.6-0.4-1-1-1H47c-0.6,0-1,0.4-1,1v5c0,0.6,0.4,1,1,1h6v5H11V8h6
	c0.6,0,1-0.4,1-1V2c0-0.6-0.4-1-1-1H3C2.4,1,2,1.4,2,2v5c0,0.6,0.4,1,1,1h6v5H8c-3.9,0-7,3.1-7,7v36c0,3.9,3.1,7,7,7h48
	c3.9,0,7-3.1,7-7V20C63,16.1,59.9,13,56,13z M41,24h9c0.6,0,1,0.4,1,1s-0.4,1-1,1h-9c-0.6,0-1-0.4-1-1S40.4,24,41,24z M14,24h9
	c0.6,0,1,0.4,1,1s-0.4,1-1,1h-9c-0.6,0-1-0.4-1-1S13.4,24,14,24z M53,53c0,0.6-0.4,1-1,1H12c-0.6,0-1-0.4-1-1V35c0-0.6,0.4-1,1-1h40
	c0.6,0,1,0.4,1,1V53z"/>
</svg>
