<?xml version="1.0" encoding="utf-8"?>
<!-- Generator: Adobe Illustrator 19.2.0, SVG Export Plug-In . SVG Version: 6.00 Build 0)  -->
<!DOCTYPE svg PUBLIC "-//W3C//DTD SVG 1.1//EN" "http://www.w3.org/Graphics/SVG/1.1/DTD/svg11.dtd">
<svg version="1.1" id="Layer_1" xmlns="http://www.w3.org/2000/svg" xmlns:xlink="http://www.w3.org/1999/xlink" x="0px" y="0px"
	 width="21px" height="21px" viewBox="0 0 48 48" enable-background="new 0 0 16 16" xml:space="preserve">
<path fill="#FFFFFF" d="M25.41406,24l13.29297-13.29297c0.39062-0.39062,0.39062-1.02344,0-1.41406s-1.02344-0.39062-1.41406,0
	L24,22.58594L10.70703,9.29297c-0.39062-0.39062-1.02344-0.39062-1.41406,0s-0.39062,1.02344,0,1.41406L22.58594,24
	L9.29297,37.29297c-0.39062,0.39062-0.39062,1.02344,0,1.41406C9.48828,38.90234,9.74414,39,10,39s0.51172-0.09766,0.70703-0.29297
	L24,25.41406l13.29297,13.29297C37.48828,38.90234,37.74414,39,38,39s0.51172-0.09766,0.70703-0.29297
	c0.39062-0.39062,0.39062-1.02344,0-1.41406L25.41406,24z"/>
</svg>
