<?xml version="1.0" encoding="utf-8"?>
<!DOCTYPE svg PUBLIC "-//W3C//DTD SVG 1.1//EN" "http://www.w3.org/Graphics/SVG/1.1/DTD/svg11.dtd">
<svg version="1.1" id="Layer_1" xmlns="http://www.w3.org/2000/svg" xmlns:xlink="http://www.w3.org/1999/xlink" x="0px" y="0px"
	 width="64px" height="64px" viewBox="0 0 64 64" enable-background="new 0 0 64 64" xml:space="preserve"  fill="#000000">
	<circle cx="32" cy="45" r="5" stroke="black" stroke-width="3" fill="#000" />
	<path d="M47.6,33.4c0.3,0,0.5-0.1,0.7-0.3c0.4-0.4,0.4-1,0-1.4C43.9,27.4,38.1,25,32,25s-11.9,2.4-16.3,6.7c-0.4,0.4-0.4,1,0,1.4
	c0.4,0.4,1,0.4,1.4,0c4-4,9.2-6.2,14.8-6.2s10.9,2.2,14.8,6.2C47,33.3,47.3,33.4,47.6,33.4z"/>
	<path d="M59.9,22c0.4-0.4,0.4-1,0-1.4C52.5,13.1,42.6,9,32,9S11.5,13.1,4.1,20.6c-0.4,0.4-0.4,1,0,1.4s1,0.4,1.4,0
	C12.6,14.9,22,11,32,11s19.4,3.9,26.5,11c0.2,0.2,0.5,0.3,0.7,0.3S59.7,22.2,59.9,22z"/>
</svg>
