<?xml version="1.0" encoding="utf-8"?>

<!DOCTYPE svg PUBLIC "-//W3C//DTD SVG 1.1//EN" "http://www.w3.org/Graphics/SVG/1.1/DTD/svg11.dtd">
<svg version="1.1" id="Layer_1" xmlns="http://www.w3.org/2000/svg" xmlns:xlink="http://www.w3.org/1999/xlink" x="0px" y="0px"
	 width="18px" height="18px" viewBox="0 0 64 64" enable-background="new 0 0 64 64" xml:space="preserve" fill="#ffffff">
<path d="M19.025,33.775l-3,13c-0.077,0.336,0.024,0.688,0.268,0.932C16.482,47.896,16.738,48,17,48c0.075,0,0.15-0.009,0.225-0.025
	l13-3c0.183-0.042,0.35-0.135,0.482-0.268l30-30c0.391-0.391,0.391-1.023,0-1.414l-10-10c-0.391-0.391-1.023-0.391-1.414,0l-30,30
	C19.16,33.426,19.068,33.593,19.025,33.775z M50,5.414L58.586,14l-29.09,29.09l-11.162,2.576l2.576-11.162L50,5.414z"/>
<path d="M2,63h50c0.552,0,1-0.447,1-1V38c0-0.553-0.448-1-1-1s-1,0.447-1,1v23H3V13h23c0.552,0,1-0.447,1-1s-0.448-1-1-1H2
	c-0.552,0-1,0.447-1,1v50C1,62.553,1.448,63,2,63z"/>
</svg>
