<?xml version="1.0" encoding="utf-8"?>

<!DOCTYPE svg PUBLIC "-//W3C//DTD SVG 1.1//EN" "http://www.w3.org/Graphics/SVG/1.1/DTD/svg11.dtd">
<svg version="1.1" id="Layer_1" xmlns="http://www.w3.org/2000/svg" xmlns:xlink="http://www.w3.org/1999/xlink" x="0px" y="0px"
	 width="18px" height="18px" viewBox="0 0 64 64" enable-background="new 0 0 64 64" xml:space="preserve" fill="#ffffff">
<path d="M2,63h50c0.553,0,1-0.447,1-1V38c0-0.553-0.447-1-1-1s-1,0.447-1,1v23H3V13h23c0.553,0,1-0.447,1-1s-0.447-1-1-1H2
	c-0.553,0-1,0.447-1,1v50C1,62.553,1.447,63,2,63z"/>
<path d="M22.035,32.737l-3,11c-0.094,0.346,0.004,0.716,0.258,0.97C19.483,44.897,19.738,45,20,45c0.088,0,0.176-0.012,0.263-0.035
	l10.999-3c0.168-0.046,0.321-0.135,0.445-0.258L61,12.414c0.781-0.781,0.781-2.047,0-2.828L54.414,3
	c-0.781-0.781-2.047-0.781-2.828,0L22.293,32.293C22.17,32.416,22.081,32.569,22.035,32.737z"/>
</svg>
