<?xml version="1.0" encoding="utf-8"?>
<!-- Generator: Adobe Illustrator 19.2.1, SVG Export Plug-In . SVG Version: 6.00 Build 0)  -->
<!DOCTYPE svg PUBLIC "-//W3C//DTD SVG 1.1//EN" "http://www.w3.org/Graphics/SVG/1.1/DTD/svg11.dtd">
<svg version="1.1" id="Layer_1" xmlns="http://www.w3.org/2000/svg" xmlns:xlink="http://www.w3.org/1999/xlink" x="0px" y="0px"
	 width="16px" height="16px" viewBox="0 0 16 16" enable-background="new 0 0 16 16" xml:space="preserve">
<path d="M2.124,30.992l8-1c0.055-0.007,0.106-0.031,0.159-0.047c0.041-0.012,0.081-0.018,0.12-0.036
	c0.112-0.05,0.217-0.114,0.304-0.202l19.586-19.586c1.17-1.17,1.17-3.072,0-4.242l-4.172-4.172c-1.17-1.17-3.072-1.17-4.242,0
	L2.293,21.293c-0.088,0.088-0.153,0.192-0.202,0.304c-0.017,0.039-0.024,0.079-0.036,0.12c-0.016,0.053-0.04,0.103-0.047,0.159l-1,8
	c-0.038,0.307,0.066,0.613,0.285,0.831C1.481,30.896,1.736,31,2,31C2.041,31,2.083,30.997,2.124,30.992z M3.739,24.153l4.108,4.108
	l-4.696,0.588L3.739,24.153z M20,6.414L22.086,8.5L6.5,24.086L4.415,22L20,6.414z M10,27.585L7.914,25.5L23.5,9.914L25.586,12
	L10,27.585z M23.293,3.121c0.391-0.391,1.023-0.391,1.414,0l4.172,4.172c0.39,0.39,0.39,1.024,0,1.414L27,10.586L21.414,5
	L23.293,3.121z"/>
</svg>
