<?xml version="1.0" encoding="utf-8"?>

<!DOCTYPE svg PUBLIC "-//W3C//DTD SVG 1.1//EN" "http://www.w3.org/Graphics/SVG/1.1/DTD/svg11.dtd">
<svg version="1.1" id="Layer_1" xmlns="http://www.w3.org/2000/svg" xmlns:xlink="http://www.w3.org/1999/xlink" x="0px" y="0px"
	 width="20px" height="20px" viewBox="0 0 64 64" enable-background="new 0 0 64 64" xml:space="preserve" fill="#ffffff">
<path d="M32,33c0.256,0,0.512-0.098,0.707-0.293L51,14.414V28c0,0.552,0.448,1,1,1s1-0.448,1-1V12
	c0-0.13-0.027-0.26-0.077-0.382c-0.101-0.244-0.296-0.439-0.541-0.541C52.26,11.027,52.13,11,52,11H36c-0.552,0-1,0.448-1,1
	s0.448,1,1,1h13.586L31.293,31.293c-0.391,0.391-0.391,1.023,0,1.414C31.488,32.902,31.744,33,32,33z"/>
<path d="M62,1H2C1.448,1,1,1.448,1,2v60c0,0.552,0.448,1,1,1h60c0.552,0,1-0.448,1-1V2C63,1.448,62.552,1,62,1z
	 M3,41h20v20H3V41z M61,61H25V40c0-0.552-0.448-1-1-1H3V3h58V61z"/>
</svg>
