<?xml version="1.0" encoding="utf-8"?>
<!-- Generator: Adobe Illustrator 19.1.0, SVG Export Plug-In . SVG Version: 6.00 Build 0)  -->
<!DOCTYPE svg PUBLIC "-//W3C//DTD SVG 1.1//EN" "http://www.w3.org/Graphics/SVG/1.1/DTD/svg11.dtd">
<svg version="1.1" id="Layer_1" xmlns="http://www.w3.org/2000/svg" xmlns:xlink="http://www.w3.org/1999/xlink" x="0px" y="0px"
	 width="15px" height="15px" viewBox="0 0 64 64" enable-background="new 0 0 64 64" xml:space="preserve"  fill="#8E8E92">
<path d="M25,24c0-2.8-2.2-5-5-5s-5,2.2-5,5s2.2,5,5,5S25,26.8,25,24z M20,27c-1.7,0-3-1.3-3-3s1.3-3,3-3s3,1.3,3,3
	S21.7,27,20,27z"/>
<path d="M44,19c-2.8,0-5,2.2-5,5s2.2,5,5,5s5-2.2,5-5S46.8,19,44,19z M44,27c-1.7,0-3-1.3-3-3s1.3-3,3-3s3,1.3,3,3
	S45.7,27,44,27z"/>
<path d="M32,1C14.9,1,1,14.9,1,32s13.9,31,31,31s31-13.9,31-31S49.1,1,32,1z M32,61C16,61,3,48,3,32S16,3,32,3
	s29,13,29,29S48,61,32,61z"/>
<path d="M42,39c-0.6,0-1,0.4-1,1c0,5-4,9-9,9s-9-4-9-9c0-0.6-0.4-1-1-1s-1,0.4-1,1c0,6.1,4.9,11,11,11s11-4.9,11-11
	C43,39.4,42.6,39,42,39z"/>
</svg>
