
<svg version="1.1" id="Layer_1" xmlns="http://www.w3.org/2000/svg" xmlns:xlink="http://www.w3.org/1999/xlink" x="0px" y="0px"
	 width="21px" height="21px" viewBox="0 0 64 64" enable-background="new 0 0 64 64" fill="#333" xml:space="preserve">
<path fill="#333" d="M56,13h-1V8h6c0.6,0,1-0.4,1-1V2c0-0.6-0.4-1-1-1H47c-0.6,0-1,0.4-1,1v5c0,0.6,0.4,1,1,1h6v5H11V8h6
	c0.6,0,1-0.4,1-1V2c0-0.6-0.4-1-1-1H3C2.4,1,2,1.4,2,2v5c0,0.6,0.4,1,1,1h6v5H8c-3.9,0-7,3.1-7,7v36c0,3.9,3.1,7,7,7h48
	c3.9,0,7-3.1,7-7V20C63,16.1,59.9,13,56,13z M48,3h12v3H48V3z M4,3h12v3H4V3z M61,56c0,2.8-2.2,5-5,5H8c-2.8,0-5-2.2-5-5V20
	c0-2.8,2.2-5,5-5h48c2.8,0,5,2.2,5,5V56z"/>
<path fill="#333" d="M52,34H12c-0.6,0-1,0.4-1,1v18c0,0.6,0.4,1,1,1h40c0.6,0,1-0.4,1-1V35C53,34.4,52.6,34,52,34z M51,43h-6v-7
	h6V43z M27,43h-6v-7h6V43z M29,36h6v7h-6V36z M27,45v7h-6v-7H27z M29,45h6v7h-6V45z M37,45h6v7h-6V45z M37,43v-7h6v7H37z M19,36v7
	h-6v-7H19z M13,45h6v7h-6V45z M45,52v-7h6v7H45z"/>
<path fill="#333" d="M14,25h9c0.6,0,1-0.4,1-1s-0.4-1-1-1h-9c-0.6,0-1,0.4-1,1S13.4,25,14,25z"/>
<path fill="#333" d="M41,25h9c0.6,0,1-0.4,1-1s-0.4-1-1-1h-9c-0.6,0-1,0.4-1,1S40.4,25,41,25z"/>
</svg>
