<?xml version="1.0" encoding="UTF-8" standalone="no"?>
<svg width="3180px" height="299px" viewBox="0 0 3180 299" version="1.1" xmlns="http://www.w3.org/2000/svg" xmlns:xlink="http://www.w3.org/1999/xlink">
    <!-- Generator: Sketch 41 (35326) - http://www.bohemiancoding.com/sketch -->
    <title>Slice 2</title>
    <desc>Created with Sketch.</desc>
    <defs>
        <rect id="path-1" x="-3390" y="-3797" width="8213" height="5785"></rect>
        <mask id="mask-2" maskContentUnits="userSpaceOnUse" maskUnits="objectBoundingBox" x="0" y="0" width="8213" height="5785" fill="white">
            <use xlink:href="#path-1"></use>
        </mask>
    </defs>
    <g id="Page-1" stroke="none" stroke-width="1" fill="none" fill-rule="evenodd">
        <use id="Rectangle-6-Copy" stroke="#979797" mask="url(#mask-2)" stroke-width="2" xlink:href="#path-1"></use>
        <path d="M114.774247,137.145769 L141.423676,137.145769 C140.414223,127.755996 137.991572,119.64213 134.15565,112.803927 C130.319728,105.965723 125.423954,100.301326 119.46818,95.8105654 C113.512407,91.3198048 106.648229,88.0028155 98.8754395,85.8594979 C91.1026504,83.7161804 82.774787,82.6445377 73.8915995,82.6445377 C61.5762713,82.6445377 50.7752849,84.8388537 41.4883161,89.2275515 C32.2013473,93.6162494 24.4791467,99.6378607 18.3214827,107.292566 C12.1638186,114.947272 7.57087575,123.928658 4.54251636,134.236995 C1.51415698,144.545332 0,155.618973 0,167.458251 C0,179.297529 1.56462888,190.167048 4.69393358,200.067133 C7.82323827,209.967219 12.466653,218.48933 18.6243171,225.633722 C24.7819812,232.778114 32.4537099,238.289419 41.6397333,242.167803 C50.8257568,246.046187 61.3743838,247.98535 73.2859307,247.98535 C93.2731026,247.98535 109.070807,242.678168 120.679518,232.063643 C132.288229,221.449118 139.505711,206.344059 142.332179,186.748012 L115.985584,186.748012 C114.370459,198.995541 109.979404,208.487234 102.812287,215.223375 C95.6451698,221.959515 85.7022057,225.327535 72.9830962,225.327535 C64.9074712,225.327535 57.9423491,223.694556 52.087521,220.428548 C46.2326928,217.162541 41.4883343,212.824939 37.854303,207.415614 C34.2202718,202.006289 31.5452611,195.831586 29.8291908,188.891319 C28.1131205,181.951053 27.2550982,174.806768 27.2550982,167.458251 C27.2550982,159.497357 28.0626486,151.791736 29.6777736,144.341156 C31.2928986,136.890576 33.9679092,130.307628 37.7028858,124.592114 C41.4378624,118.876601 46.4345804,114.283846 52.6931898,110.813713 C58.9517992,107.34358 66.7244717,105.608539 76.0114405,105.608539 C86.9135343,105.608539 95.5947009,108.364192 102.055201,113.87558 C108.515701,119.386968 112.755341,127.14362 114.774247,137.145769 L114.774247,137.145769 L114.774247,137.145769 L114.774247,137.145769 Z M185.145396,165.621131 C185.145396,156.027233 186.407194,147.505122 188.930826,140.054542 C191.454459,132.603962 194.93702,126.327198 199.378614,121.224061 C203.820208,116.120924 209.018813,112.242598 214.974587,109.588966 C220.93036,106.935335 227.239348,105.608539 233.901738,105.608539 C240.564129,105.608539 246.873116,106.935335 252.82889,109.588966 C258.784663,112.242598 263.983269,116.120924 268.424863,121.224061 C272.866457,126.327198 276.349018,132.603962 278.87265,140.054542 C281.396283,147.505122 282.658081,156.027233 282.658081,165.621131 C282.658081,175.215028 281.396283,183.737139 278.87265,191.187719 C276.349018,198.638299 272.866457,204.864033 268.424863,209.865107 C263.983269,214.866182 258.784663,218.693477 252.82889,221.347108 C246.873116,224.00074 240.564129,225.327535 233.901738,225.327535 C227.239348,225.327535 220.93036,224.00074 214.974587,221.347108 C209.018813,218.693477 203.820208,214.866182 199.378614,209.865107 C194.93702,204.864033 191.454459,198.638299 188.930826,191.187719 C186.407194,183.737139 185.145396,175.215028 185.145396,165.621131 L185.145396,165.621131 L185.145396,165.621131 L185.145396,165.621131 Z M157.890298,165.621131 C157.890298,177.256283 159.505399,188.074771 162.735649,198.07692 C165.965899,208.079068 170.811201,216.805302 177.271701,224.255882 C183.732201,231.706462 191.706761,237.523951 201.195621,241.708523 C210.68448,245.893096 221.58641,247.98535 233.901738,247.98535 C246.418957,247.98535 257.371359,245.893096 266.759273,241.708523 C276.147188,237.523951 284.071276,231.706462 290.531776,224.255882 C296.992276,216.805302 301.837578,208.079068 305.067828,198.07692 C308.298078,188.074771 309.913179,177.256283 309.913179,165.621131 C309.913179,153.985978 308.298078,143.11646 305.067828,133.012248 C301.837578,122.908037 296.992276,114.130773 290.531776,106.680193 C284.071276,99.2296128 276.147188,93.3610933 266.759273,89.0744582 C257.371359,84.7878231 246.418957,82.6445377 233.901738,82.6445377 C221.58641,82.6445377 210.68448,84.7878231 201.195621,89.0744582 C191.706761,93.3610933 183.732201,99.2296128 177.271701,106.680193 C170.811201,114.130773 165.965899,122.908037 162.735649,133.012248 C159.505399,143.11646 157.890298,153.985978 157.890298,165.621131 L157.890298,165.621131 L157.890298,165.621131 L157.890298,165.621131 Z M335.464833,86.318778 L335.464833,244.617297 L361.205759,244.617297 L361.205759,146.025183 C361.205759,142.9633 361.962838,139.136005 363.477018,134.543182 C364.991197,129.950358 367.413849,125.510696 370.745044,121.224061 C374.076239,116.937426 378.416823,113.263222 383.766924,110.20134 C389.117026,107.139458 395.526957,105.608539 402.99691,105.608539 C408.851738,105.608539 413.646569,106.47606 417.381545,108.211126 C421.116522,109.946193 424.094364,112.395662 426.315161,115.559607 C428.535958,118.723552 430.100586,122.448786 431.009094,126.735421 C431.917602,131.022056 432.371849,135.716872 432.371849,140.820009 L432.371849,244.617297 L458.112775,244.617297 L458.112775,146.025183 C458.112775,133.777654 461.746752,123.979778 469.014815,116.63126 C476.282877,109.282743 486.276313,105.608539 498.995423,105.608539 C505.254032,105.608539 510.351694,106.52709 514.288561,108.36422 C518.225428,110.201349 521.304214,112.701849 523.525011,115.865794 C525.745808,119.029739 527.259965,122.754973 528.067527,127.041608 C528.87509,131.328243 529.278865,135.920997 529.278865,140.820009 L529.278865,244.617297 L555.019791,244.617297 L555.019791,128.572541 C555.019791,120.407522 553.757994,113.416329 551.234361,107.598753 C548.710728,101.781177 545.177695,97.0353305 540.635156,93.3610719 C536.092617,89.6868132 530.641652,86.9821911 524.282097,85.2471246 C517.922542,83.512058 510.806004,82.6445377 502.93227,82.6445377 C492.635848,82.6445377 483.197603,84.9919455 474.617251,89.6868316 C466.0369,94.3817176 459.12225,101.015696 453.873093,109.588966 C450.642843,99.7909434 445.090934,92.8507811 437.2172,88.7682715 C429.343466,84.6857619 420.561355,82.6445377 410.870605,82.6445377 C388.864527,82.6445377 372.006913,91.6259241 360.297256,109.588966 L359.691587,109.588966 L359.691587,86.318778 L335.464833,86.318778 L335.464833,86.318778 L335.464833,86.318778 Z M697.768368,150.311796 L607.826544,150.311796 C608.230325,144.188032 609.542594,138.421573 611.763391,133.012248 C613.984188,127.602923 617.012502,122.857077 620.848424,118.774567 C624.684346,114.692058 629.277289,111.477129 634.62739,109.129686 C639.977492,106.782243 645.983648,105.608539 652.646039,105.608539 C659.106539,105.608539 665.011751,106.782243 670.361852,109.129686 C675.711954,111.477129 680.355369,114.641027 684.292236,118.621474 C688.229103,122.601921 691.358361,127.347767 693.680103,132.859155 C696.001845,138.370543 697.364586,144.188032 697.768368,150.311796 L697.768368,150.311796 L697.768368,150.311796 L697.768368,150.311796 Z M722.60079,194.40268 L697.162699,194.40268 C694.941902,204.813079 690.348959,212.569731 683.383733,217.672868 C676.418506,222.776005 667.48498,225.327535 656.582886,225.327535 C648.10348,225.327535 640.734582,223.898678 634.475973,221.040922 C628.217364,218.183165 623.06923,214.35587 619.031417,209.558921 C614.993605,204.761972 612.066235,199.250667 610.249219,193.02484 C608.432203,186.799012 607.624653,180.216064 607.826544,173.275798 L725.023466,173.275798 C725.427247,163.6819 724.569225,153.577841 722.449373,142.963316 C720.329522,132.348791 716.493657,122.550915 710.941665,113.569393 C705.389673,104.587872 698.020776,97.1884346 688.834752,91.3708584 C679.648729,85.5532822 668.090664,82.6445377 654.160211,82.6445377 C643.460007,82.6445377 633.617987,84.6857619 624.633854,88.7682715 C615.649721,92.8507811 607.877049,98.5662088 601.315604,105.914726 C594.754158,113.263243 589.656496,121.938446 586.022465,131.940595 C582.388434,141.942743 580.571446,152.965354 580.571446,165.008757 C580.975227,177.052161 582.741743,188.176833 585.871048,198.383107 C589.000353,208.589381 593.694239,217.366645 599.952849,224.715162 C606.211458,232.063679 613.933659,237.779107 623.119682,241.861617 C632.305706,245.944126 643.157164,247.98535 655.674383,247.98535 C673.440758,247.98535 688.178552,243.494657 699.888209,234.513136 C711.597865,225.531615 719.16865,212.161596 722.60079,194.40268 L722.60079,194.40268 L722.60079,194.40268 L722.60079,194.40268 Z M782.675569,86.318778 L782.675569,38.859841 L756.934643,38.859841 L756.934643,86.318778 L730.285214,86.318778 L730.285214,109.28278 L756.934643,109.28278 L756.934643,210.018201 C756.934643,217.366718 757.64125,223.286268 759.054484,227.777029 C760.467719,232.267789 762.63801,235.737871 765.565424,238.187376 C768.492839,240.636882 772.328703,242.320892 777.073133,243.239457 C781.817562,244.158021 787.520887,244.617297 794.183278,244.617297 L813.867515,244.617297 L813.867515,221.653295 L802.056973,221.653295 C798.01916,221.653295 794.738487,221.500203 792.214854,221.194015 C789.691221,220.887827 787.722817,220.224429 786.309582,219.203802 C784.896348,218.183174 783.937382,216.754317 783.432655,214.917188 C782.927929,213.080059 782.675569,210.63059 782.675569,207.568707 L782.675569,109.28278 L813.867515,109.28278 L813.867515,86.318778 L782.675569,86.318778 L782.675569,86.318778 L782.675569,86.318778 Z M941.171536,142.044756 L983.265521,142.044756 C982.659849,131.838482 980.237198,123.010187 975.997495,115.559607 C971.757792,108.109027 966.256355,101.883293 959.493019,96.8822188 C952.729683,91.8811445 945.057954,88.1559104 936.477603,85.7064046 C927.897251,83.2568988 918.963725,82.0321643 909.676756,82.0321643 C896.957647,82.0321643 885.651941,84.1754497 875.759301,88.4620848 C865.86666,92.7487199 857.488325,98.7193007 850.624043,106.374006 C843.759762,114.028712 838.561156,123.112159 835.02807,133.624622 C831.494985,144.137084 829.728468,155.516909 829.728468,167.764438 C829.728468,179.603715 831.6464,190.473234 835.482322,200.37332 C839.318244,210.273406 844.668265,218.795517 851.532547,225.939909 C858.396828,233.084301 866.724691,238.646636 876.516387,242.627083 C886.308082,246.60753 897.058597,248.597724 908.768253,248.597724 C929.562987,248.597724 946.622489,243.086418 959.94727,232.063643 C973.272052,221.040867 981.347556,205.017257 984.174024,183.992332 L942.685708,183.992332 C941.272474,193.790355 937.789913,201.598038 932.237921,207.415614 C926.685928,213.23319 918.76184,216.141935 908.465418,216.141935 C901.803028,216.141935 896.150175,214.611016 891.506691,211.549134 C886.863206,208.487252 883.178758,204.557896 880.453234,199.760947 C877.727711,194.963998 875.759307,189.605784 874.547963,183.686145 C873.336619,177.766507 872.730956,171.949018 872.730956,166.233504 C872.730956,160.313865 873.336619,154.343284 874.547963,148.321583 C875.759307,142.299881 877.828654,136.788576 880.756069,131.787501 C883.683483,126.786427 887.468875,122.703979 892.112359,119.540034 C896.755844,116.376089 902.50964,114.79414 909.373922,114.79414 C927.745969,114.79414 938.345067,123.877588 941.171536,142.044756 L941.171536,142.044756 L941.171536,142.044756 L941.171536,142.044756 Z M1003.66899,26 L1003.66899,244.617297 L1046.67148,244.617297 L1046.67148,161.640704 C1046.67148,145.514791 1049.29602,133.930844 1054.54517,126.888514 C1059.79433,119.846185 1068.27361,116.325074 1079.98327,116.325074 C1090.27969,116.325074 1097.4467,119.540002 1101.48451,125.969954 C1105.52232,132.399907 1107.5412,142.146753 1107.5412,155.210783 L1107.5412,244.617297 L1150.54369,244.617297 L1150.54369,147.249929 C1150.54369,137.451906 1149.68566,128.52155 1147.96959,120.458594 C1146.25352,112.395637 1143.27568,105.557536 1139.03598,99.9440857 C1134.79627,94.330635 1128.99201,89.942003 1121.623,86.778058 C1114.25399,83.6141131 1104.81575,82.0321643 1093.30798,82.0321643 C1085.23236,82.0321643 1076.95496,84.1244191 1068.47556,88.3089915 C1059.99615,92.4935638 1053.03103,99.178573 1047.57998,108.36422 L1046.67148,108.36422 L1046.67148,26 L1003.66899,26 L1003.66899,26 L1003.66899,26 Z M1176.70101,135.002462 C1177.30668,124.796188 1179.83028,116.325107 1184.27187,109.588966 C1188.71346,102.852826 1194.36632,97.4435815 1201.2306,93.3610719 C1208.09488,89.2785622 1215.81708,86.3698178 1224.39743,84.6347512 C1232.97778,82.8996846 1241.60848,82.0321643 1250.28977,82.0321643 C1258.16351,82.0321643 1266.13807,82.593501 1274.21369,83.7161911 C1282.28932,84.8388813 1289.65822,87.0331973 1296.32061,90.2992049 C1302.983,93.5652126 1308.43396,98.1069365 1312.67367,103.924513 C1316.91337,109.742089 1319.03319,117.44771 1319.03319,127.041608 L1319.03319,209.405827 C1319.03319,216.550219 1319.43696,223.38832 1320.24453,229.920336 C1321.05209,236.452351 1322.4653,241.351289 1324.48421,244.617297 L1280.87605,244.617297 C1280.06849,242.167791 1279.41235,239.667291 1278.90763,237.115723 C1278.4029,234.564154 1278.0496,231.961594 1277.84771,229.307962 C1270.98343,236.452354 1262.90792,241.453353 1253.62095,244.31111 C1244.33398,247.168867 1234.84527,248.597724 1225.15452,248.597724 C1217.68456,248.597724 1210.71944,247.679173 1204.25894,245.842044 C1197.79844,244.004914 1192.14559,241.1472 1187.30021,237.268816 C1182.45484,233.390432 1178.66945,228.491494 1175.94392,222.571855 C1173.2184,216.652216 1171.85566,209.609993 1171.85566,201.444974 C1171.85566,192.463452 1173.42029,185.064015 1176.54959,179.246438 C1179.6789,173.428862 1183.71665,168.785077 1188.66297,165.314944 C1193.60929,161.844811 1199.26214,159.24225 1205.6217,157.507183 C1211.98125,155.772117 1218.39118,154.394291 1224.85168,153.373663 C1231.31218,152.353036 1237.67164,151.536546 1243.93025,150.92417 C1250.18886,150.311793 1255.74077,149.393242 1260.58615,148.168489 C1265.43152,146.943737 1269.26738,145.157665 1272.09385,142.810222 C1274.92032,140.462779 1276.23259,137.043729 1276.0307,132.552968 C1276.0307,127.858082 1275.27362,124.132848 1273.75944,121.377154 C1272.24526,118.62146 1270.22639,116.478175 1267.70275,114.947234 C1265.17912,113.416292 1262.25175,112.39568 1258.92056,111.885367 C1255.58936,111.375053 1252.00586,111.1199 1248.16993,111.1199 C1239.69053,111.1199 1233.02824,112.957002 1228.18286,116.63126 C1223.33749,120.305519 1220.51106,126.429192 1219.7035,135.002462 L1176.70101,135.002462 L1176.70101,135.002462 L1176.70101,135.002462 Z M1276.0307,167.152064 C1274.21369,168.785068 1271.94245,170.060833 1269.21693,170.979398 C1266.4914,171.897962 1263.56403,172.663422 1260.43473,173.275798 C1257.30542,173.888174 1254.02475,174.39848 1250.59261,174.806731 C1247.16047,175.214982 1243.72838,175.725288 1240.29624,176.337665 C1237.06599,176.950041 1233.88626,177.766531 1230.75695,178.787158 C1227.62765,179.807786 1224.90217,181.185612 1222.58042,182.920679 C1220.25868,184.655745 1218.39122,186.850061 1216.97799,189.503693 C1215.56475,192.157324 1214.85815,195.525344 1214.85815,199.607853 C1214.85815,203.486237 1215.56475,206.752196 1216.97799,209.405827 C1218.39122,212.059459 1220.30915,214.151713 1222.73184,215.682655 C1225.15453,217.213596 1227.98096,218.285238 1231.21121,218.897615 C1234.44146,219.509991 1237.7726,219.816175 1241.20474,219.816175 C1249.68415,219.816175 1256.2455,218.387318 1260.88898,215.529561 C1265.53246,212.671805 1268.96455,209.252754 1271.18535,205.272307 C1273.40615,201.29186 1274.76889,197.260442 1275.27361,193.177933 C1275.77834,189.095423 1276.0307,185.829465 1276.0307,183.379959 L1276.0307,167.152064 L1276.0307,167.152064 L1276.0307,167.152064 Z M1402.12338,86.318778 L1402.12338,38.859841 L1359.1209,38.859841 L1359.1209,86.318778 L1333.07714,86.318778 L1333.07714,115.406514 L1359.1209,115.406514 L1359.1209,208.793454 C1359.1209,216.754348 1360.43317,223.184204 1363.05774,228.083216 C1365.68232,232.982227 1369.26583,236.758492 1373.80837,239.412123 C1378.3509,242.065754 1383.59998,243.851826 1389.55576,244.77039 C1395.51153,245.688955 1401.82052,246.14823 1408.48291,246.14823 C1412.72261,246.14823 1417.06319,246.046169 1421.50479,245.842044 C1425.94638,245.637918 1429.98413,245.229673 1433.61816,244.617297 L1433.61816,210.936761 C1431.59926,211.345012 1429.47944,211.651195 1427.25864,211.855321 C1425.03784,212.059446 1422.71614,212.161508 1420.29345,212.161508 C1413.02539,212.161508 1408.18008,210.936773 1405.7574,208.487267 C1403.33471,206.037762 1402.12338,201.138824 1402.12338,193.790306 L1402.12338,115.406514 L1433.61816,115.406514 L1433.61816,86.318778 L1402.12338,86.318778 L1402.12338,86.318778 Z" id="Combined-Shape-Copy-13" fill="#000000"></path>
        <text id="®-copy" opacity="0.7" font-family="HelveticaNeue-Medium, Helvetica Neue" font-size="130" font-weight="400" letter-spacing="-2.03125" fill="#000000">
            <tspan x="1451" y="96">®</tspan>
        </text>
        <text id="admin-panel" font-family="HelveticaNeue-Italic, Helvetica Neue" font-size="288" font-style="italic" font-weight="normal" line-spacing="243" letter-spacing="-4.5" fill="#000000">
            <tspan x="1654" y="281">admin panel</tspan>
        </text>
    </g>
</svg>
