<?xml version="1.0" encoding="utf-8"?>
<!-- Generator: Adobe Illustrator 19.2.1, SVG Export Plug-In . SVG Version: 6.00 Build 0)  -->
<!DOCTYPE svg PUBLIC "-//W3C//DTD SVG 1.1//EN" "http://www.w3.org/Graphics/SVG/1.1/DTD/svg11.dtd">
<svg version="1.1" id="Layer_1" xmlns="http://www.w3.org/2000/svg" xmlns:xlink="http://www.w3.org/1999/xlink" x="0px" y="0px"
	 width="16px" height="16px" viewBox="0 0 24 24" enable-background="new 0 0 24 24" xml:space="preserve" fill="#ccc">
<path d="M12,0C5.383,0,0,5.383,0,12s5.383,12,12,12s12-5.383,12-12S18.617,0,12,0z M16.832,10.555l-4,6
	C12.646,16.833,12.334,17,12,17s-0.646-0.167-0.832-0.445l-4-6c-0.205-0.307-0.224-0.701-0.05-1.026C7.292,9.203,7.631,9,8,9h8
	c0.369,0,0.708,0.203,0.882,0.528C17.056,9.854,17.037,10.248,16.832,10.555z"/>
</svg>
