<svg xmlns="http://www.w3.org/2000/svg" xmlns:xlink="http://www.w3.org/1999/xlink" x="0px" y="0px" width="24px" height="24px" viewBox="0 0 48 48"><g >
<path fill="#E6E6E6" d="M24,47C11.318,47,1,36.683,1,24S11.318,1,24,1s23,10.317,23,23S36.682,47,24,47z"/>
<path fill="#444444" d="M29.772,33H18.228c-0.433,0-0.817-0.279-0.951-0.691L13.71,21.33c-0.134-0.411,0.013-0.863,0.363-1.117
	l9.339-6.785c0.351-0.256,0.825-0.256,1.176,0l9.339,6.785c0.351,0.254,0.497,0.706,0.363,1.117l-3.567,10.979
	C30.589,32.721,30.205,33,29.772,33z"/>
<path fill="#444444" d="M17.332,2.635l6.084,4.385C23.59,7.146,23.795,7.208,24,7.208s0.41-0.062,0.584-0.188l6.084-4.385
	c0.183-0.132,0.304-0.322,0.366-0.53C28.816,1.39,26.453,1,24,1s-4.816,0.39-7.034,1.104C17.027,2.313,17.148,2.502,17.332,2.635z"/>
<path fill="#444444" d="M1.618,23.74l6.052-4.432c0.347-0.254,0.493-0.702,0.361-1.112l-2.288-7.132
	c-0.069-0.214-0.21-0.386-0.388-0.509c-2.724,3.767-4.339,8.385-4.354,13.375c0.008,0,0.017,0.003,0.025,0.003
	C1.235,23.934,1.443,23.868,1.618,23.74z"/>
<path fill="#444444" d="M16.836,45.205l-2.345-7.124c-0.134-0.409-0.516-0.686-0.946-0.688l-7.485-0.027c-0.001,0-0.002,0-0.003,0
	c-0.225,0-0.433,0.082-0.604,0.214c2.809,3.826,6.771,6.752,11.369,8.266C16.894,45.642,16.907,45.419,16.836,45.205z"/>
<path fill="#444444" d="M41.939,37.366l-7.485,0.027c-0.431,0.002-0.812,0.278-0.946,0.688l-2.345,7.124
	c-0.07,0.214-0.057,0.437,0.015,0.642c4.599-1.515,8.56-4.441,11.369-8.266c-0.172-0.132-0.38-0.214-0.604-0.214
	C41.942,37.366,41.94,37.366,41.939,37.366z"/>
<path fill="#444444" d="M42.256,11.064l-2.288,7.132c-0.131,0.41,0.014,0.858,0.361,1.112l6.052,4.432
	c0.175,0.128,0.382,0.193,0.591,0.193c0.008,0,0.017-0.003,0.025-0.003c-0.015-4.99-1.63-9.608-4.354-13.375
	C42.466,10.678,42.325,10.851,42.256,11.064z"/>
</g></svg>
