<?xml version="1.0" encoding="utf-8"?>
<!-- Generator: Adobe Illustrator 19.2.0, SVG Export Plug-In . SVG Version: 6.00 Build 0)  -->
<!DOCTYPE svg PUBLIC "-//W3C//DTD SVG 1.1//EN" "http://www.w3.org/Graphics/SVG/1.1/DTD/svg11.dtd">
<svg version="1.1" id="Layer_1" xmlns="http://www.w3.org/2000/svg" xmlns:xlink="http://www.w3.org/1999/xlink" x="0px" y="0px"
	 width="24px" height="24px" viewBox="0 0 48 48" enable-background="new 0 0 48 48" xml:space="preserve">
<path fill="#B3B3B3" d="M39.5,30h-8c-0.82812,0-1.5-0.67139-1.5-1.5v-14c0-0.82861,0.67188-1.5,1.5-1.5h12
	c0.82812,0,1.5,0.67139,1.5,1.5v10C45,27.53271,42.53223,30,39.5,30z M33,27h6.5c1.37891,0,2.5-1.12158,2.5-2.5V16h-9V27z"/>
<path fill="#E86C60" d="M20,7c-0.55273,0-1-0.44775-1-1V2c0-0.55225,0.44727-1,1-1s1,0.44775,1,1v4C21,6.55225,20.55273,7,20,7z"/>
<path fill="#E86C60" d="M10,9C9.44727,9,9,8.55225,9,8V4c0-0.55225,0.44727-1,1-1s1,0.44775,1,1v4C11,8.55225,10.55273,9,10,9z"/>
<path fill="#E86C60" d="M30,9c-0.55273,0-1-0.44775-1-1V4c0-0.55225,0.44727-1,1-1s1,0.44775,1,1v4C31,8.55225,30.55273,9,30,9z"/>
<path fill="#E6E6E6" d="M28,47H12c-4.97056,0-9-4.02944-9-9V14c0-0.55229,0.44772-1,1-1h33v25C37,42.97056,32.97056,47,28,47z"/>
</svg>
