<?xml version="1.0" encoding="utf-8"?>
<!-- Generator: Adobe Illustrator 19.1.0, SVG Export Plug-In . SVG Version: 6.00 Build 0)  -->
<!DOCTYPE svg PUBLIC "-//W3C//DTD SVG 1.1//EN" "http://www.w3.org/Graphics/SVG/1.1/DTD/svg11.dtd">
<svg version="1.1" id="Layer_1" xmlns="http://www.w3.org/2000/svg" xmlns:xlink="http://www.w3.org/1999/xlink" x="0px" y="0px"
	 width="48px" height="48px" viewBox="0 0 48 48" enable-background="new 0 0 24 24" xml:space="preserve">
<path fill="#A8A8A8" d="M23.9,14.7C23.9,14.6,23.9,14.6,23.9,14.7c0-0.1,0-0.1-0.1-0.2L20,7.7V1c0-0.6-0.4-1-1-1H5C4.4,0,4,0.4,4,1v6.7l-3.9,6.8
	c0,0,0,0,0,0.1c0,0,0,0.1,0,0.1C0,14.8,0,14.9,0,15v8c0,0.6,0.4,1,1,1h22c0.6,0,1-0.4,1-1v-8C24,14.9,24,14.8,23.9,14.7z M21.3,14
	H20v-2.2L21.3,14z M18,2v12h-2c-0.6,0-1,0.4-1,1v2H9v-2c0-0.6-0.4-1-1-1H6V2H18z M4,14H2.7L4,11.8V14z"/>
<rect id="color_12_" fill="#A8A8A8" x="8" y="5" width="8" height="2"/>
<rect id="color_11_" fill="#A8A8A8" x="8" y="9" width="8" height="2"/>
</svg>
