<?xml version="1.0" encoding="utf-8"?>
<!-- Generator: Adobe Illustrator 19.1.0, SVG Export Plug-In . SVG Version: 6.00 Build 0)  -->
<!DOCTYPE svg PUBLIC "-//W3C//DTD SVG 1.1//EN" "http://www.w3.org/Graphics/SVG/1.1/DTD/svg11.dtd">
<svg version="1.1" id="Layer_1" xmlns="http://www.w3.org/2000/svg" xmlns:xlink="http://www.w3.org/1999/xlink" x="0px" y="0px"
	 width="24px" height="24px" viewBox="0 0 48 48" enable-background="new 0 0 48 48" xml:space="preserve">
<path fill="#444444" d="M8,1C4.14062,1,1,4.14062,1,8c0,3.54883,2.65332,6.53809,6.1709,6.95312l0.11725-0.99347l0,0
	l6.72351-6.92249V7.03711l0.97955-0.20312C14.31249,3.5625,11.24121,1,8,1z"/>
<path fill="#444444" d="M40,1c-3.24121,0-6.31251,2.5625-6.99121,5.83398l0.97955,0.20312v0.00006l6.72351,6.92249l0,0
	l0.11725,0.99347C44.34668,14.53809,47,11.54883,47,8C47,4.14062,43.85938,1,40,1z"/>
<path fill="#E6E6E6" d="M24,47c-10.09668,0-16.97461-2.5459-20.44141-7.56738c-4.15918-6.02344-2.45605-14.08496-0.2959-19.78711
	C6.31152,11.59863,13.36035,3,24,3s17.68848,8.59863,20.7373,16.64551l0,0c2.16016,5.70215,3.86328,13.76367-0.2959,19.78711
	C40.97461,44.4541,34.09668,47,24,47z"/>
<path fill="#444444" d="M15.16211,14.85449c-3.85059,0-6.74414,5.43164-6.77734,7.74121
	c-0.02148,1.49512,0.60645,3.1123,1.60059,4.12109c0.67383,0.68359,1.45703,1.04492,2.26465,1.04492
	c2.29395,0,4.12793-2.16895,5.61816-4.29004c1.70605-2.42773,1.84961-3.32031,1.43457-4.94141
	C18.67969,16.09082,17.28613,14.85449,15.16211,14.85449z"/>
<path fill="#444444" d="M32.83789,14.85449c-2.12402,0-3.51758,1.23633-4.14062,3.67578
	c-0.41504,1.62109-0.27148,2.51367,1.43457,4.94141c1.49023,2.12109,3.32422,4.29004,5.61816,4.29004
	c0.80762,0,1.59082-0.36133,2.26465-1.04492c0.99414-1.00879,1.62207-2.62598,1.60059-4.12109
	C39.58203,20.28613,36.68848,14.85449,32.83789,14.85449z"/>
<path fill="#9B9B9B" d="M30,36c-0.55273,0-1,0.44727-1,1v1c0,1.10254-0.89746,2-2,2s-2-0.89746-2-2v-3.67383
	c0-0.55273-0.44727-1-1-1s-1,0.44727-1,1V38c0,1.10254-0.89746,2-2,2s-2-0.89746-2-2v-1c0-0.55273-0.44727-1-1-1s-1,0.44727-1,1v1
	c0,2.20605,1.79395,4,4,4c1.2005,0,2.2663-0.54224,3-1.38202C24.7337,41.45776,25.7995,42,27,42c2.20605,0,4-1.79395,4-4v-1
	C31,36.44727,30.55273,36,30,36z"/>
<path fill="#444444" d="M29.23535,27.38086C28.80957,26.5293,27.95312,26,27,26h-6c-0.95312,0-1.80957,0.5293-2.23535,1.38086
	C18.33789,28.2334,18.42773,29.2373,19,30l3,4.00098C22.47754,34.63574,23.20605,35,24,35s1.52246-0.36426,2-1l3-4
	C29.57227,29.2373,29.66211,28.2334,29.23535,27.38086z"/>
<circle fill="#FFFFFF" cx="14.5" cy="20.5" r="1.5"/>
<circle fill="#FFFFFF" cx="33.5" cy="20.5" r="1.5"/>
</svg>
