<?xml version="1.0" encoding="utf-8"?>
<!-- Generator: Adobe Illustrator 19.1.0, SVG Export Plug-In . SVG Version: 6.00 Build 0)  -->
<!DOCTYPE svg PUBLIC "-//W3C//DTD SVG 1.1//EN" "http://www.w3.org/Graphics/SVG/1.1/DTD/svg11.dtd">
<svg version="1.1" id="Layer_1" xmlns="http://www.w3.org/2000/svg" xmlns:xlink="http://www.w3.org/1999/xlink" x="0px" y="0px"
	 width="24px" height="24px" viewBox="0 0 48 48" enable-background="new 0 0 48 48" xml:space="preserve">
<path fill="#FFD764" d="M24,47C11.31787,47,1,36.68213,1,24S11.31787,1,24,1s23,10.31787,23,23S36.68213,47,24,47z"/>
<path fill="#444444" d="M14,21c-1.6543,0-3-1.3457-3-3s1.3457-3,3-3s3,1.3457,3,3S15.6543,21,14,21z"/>
<path fill="#444444" d="M34,21c-1.6543,0-3-1.3457-3-3s1.3457-3,3-3s3,1.3457,3,3S35.6543,21,34,21z"/>
<path fill="#444444" d="M24,37c-3.21436,0-6.20654-1.73828-7.80908-4.53662c-0.27441-0.47949-0.1084-1.09033,0.37061-1.36475
	c0.479-0.27539,1.09033-0.10791,1.36475,0.37061C19.17383,33.64697,21.50098,35,24,35s4.82617-1.35303,6.07373-3.53076
	c0.27393-0.47852,0.88623-0.646,1.36475-0.37061c0.479,0.27441,0.64502,0.88525,0.37061,1.36475
	C30.20654,35.26172,27.21436,37,24,37z"/>
</svg>
