<svg xmlns="http://www.w3.org/2000/svg" xmlns:xlink="http://www.w3.org/1999/xlink" x="0px" y="0px" width="24px" height="24px" viewBox="0 0 48 48"><g >
<path fill="#4DA34D" d="M42,23H6c-0.32129,0-0.62354-0.1543-0.81104-0.41553c-0.18799-0.26074-0.23926-0.5957-0.1377-0.90088
	l3.31641-9.94873C8.9126,10.09912,10.4375,9,12.16211,9h23.67578c1.72461,0,3.24951,1.09912,3.79443,2.73535l3.31641,9.94824
	c0.10156,0.30518,0.05029,0.64014-0.1377,0.90088C42.62354,22.8457,42.32129,23,42,23z"/>
<path fill="#E6E6E6" d="M7.38721,21l2.87793-8.63281C10.5376,11.54932,11.2998,11,12.16211,11h23.67578
	c0.8623,0,1.62451,0.54932,1.89697,1.36719L40.61279,21H7.38721z"/>
<path fill="#72C472" d="M41,21H7c-3.31371,0-6,2.68629-6,6v8h46v-8C47,23.68629,44.31371,21,41,21z"/>
<circle fill="#FFFFFF" cx="7" cy="27" r="3"/>
<circle fill="#FFFFFF" cx="41" cy="27" r="3"/>
<path fill="#4DA34D" d="M46,39H2c-0.55228,0-1-0.44772-1-1v-3h46v3C47,38.55228,46.55228,39,46,39z"/>
<path fill="#444444" d="M32,32H16c-1.10457,0-2-0.89543-2-2v0c0-1.10457,0.89543-2,2-2H32c1.10457,0,2,0.89543,2,2v0
	C34,31.10457,33.10457,32,32,32z"/>
<path fill="#444444" d="M9,45H5c-1.10457,0-2-0.89543-2-2v-4h8v4C11,44.10457,10.10457,45,9,45z"/>
<path fill="#444444" d="M43,45h-4c-1.10457,0-2-0.89543-2-2v-4h8v4C45,44.10457,44.10457,45,43,45z"/>
<circle fill="#EA9860" cx="7" cy="35" r="2"/>
<circle fill="#EA9860" cx="41" cy="35" r="2"/>
</g></svg>
