<?xml version="1.0" encoding="utf-8"?>
<!-- Generator: Adobe Illustrator 19.1.0, SVG Export Plug-In . SVG Version: 6.00 Build 0)  -->
<!DOCTYPE svg PUBLIC "-//W3C//DTD SVG 1.1//EN" "http://www.w3.org/Graphics/SVG/1.1/DTD/svg11.dtd">
<svg version="1.1" id="Layer_1" xmlns="http://www.w3.org/2000/svg" xmlns:xlink="http://www.w3.org/1999/xlink" x="0px" y="0px"
	 width="64px" height="64px" viewBox="0 0 64 64" enable-background="new 0 0 64 64" xml:space="preserve">
<path d="M53.9,10.1C48.1,4.2,40.3,1,32,1s-16.1,3.2-21.9,9.1C-2,22.2-2,41.8,10.1,53.9C15.9,59.8,23.7,63,32,63s16.1-3.2,21.9-9.1
	C66,41.8,66,22.2,53.9,10.1z M16,38c-3.3,0-6-2.7-6-6s2.7-6,6-6s6,2.7,6,6S19.3,38,16,38z M32,54c-3.3,0-6-2.7-6-6s2.7-6,6-6
	s6,2.7,6,6S35.3,54,32,54z M32,22c-3.3,0-6-2.7-6-6s2.7-6,6-6s6,2.7,6,6S35.3,22,32,22z M48,38c-3.3,0-6-2.7-6-6s2.7-6,6-6
	s6,2.7,6,6S51.3,38,48,38z"/>
</svg>
